<svg width="24" height="24" viewBox="0 0 24 24" fill="none" xmlns="http://www.w3.org/2000/svg">
<path d="M21 20H18.912L18.1095 17.8182H14.4532L13.6455 20H11.6227L15.3285 10.5455H17.2815L21 20ZM17.5702 16.3135L16.2915 12.7476L15.0075 16.3135H17.5702ZM10.6313 8.456C10.7257 8.10255 10.782 7.83636 10.8345 7.57455L9.18525 7.26327C9.15825 7.39782 9.10875 7.65091 9.02025 7.99055C8.46375 7.91127 7.87125 7.90182 7.27125 7.96073C7.2855 7.57018 7.31025 7.18764 7.34475 6.81964H9.18675V5.30473H7.566C7.6455 4.91855 7.7145 4.68727 7.782 4.46909L6.17175 4C6.05325 4.38255 5.95425 4.75782 5.85525 5.30473H4.017V6.81964H5.655C5.6115 7.30909 5.58525 7.81673 5.57775 8.33018C3.768 8.97455 3 10.2029 3 11.3171C3 12.6327 4.07025 13.7891 5.763 13.64C7.8645 13.4545 9.26775 11.9156 10.0905 10.0225C10.941 10.4982 11.2965 11.2975 10.9763 12.0378C10.6793 12.7222 9.8055 13.3745 8.1375 13.3411V14.9716C9.98925 14.9993 11.811 14.3178 12.525 12.6691C13.2225 11.0589 12.426 9.29818 10.6313 8.456ZM8.46225 9.56945C8.2005 10.1324 7.8555 10.6916 7.416 11.1324C7.3485 10.6633 7.30275 10.1491 7.278 9.6C7.67775 9.54909 8.082 9.53964 8.46225 9.56945ZM5.62125 10.096C5.66775 10.7847 5.748 11.4182 5.859 11.984C4.362 12.2495 4.302 10.8182 5.62125 10.096Z" fill="currentColor"/>
</svg>
