<svg width="31" height="31" viewBox="0 0 31 31" fill="none" xmlns="http://www.w3.org/2000/svg">
<path d="M14.7534 3.15935L12.0065 1.09977C11.8591 0.988902 11.6875 0.914643 11.5058 0.883117C11.3241 0.85159 11.1375 0.863698 10.9614 0.918442C10.1106 1.18485 9.28523 1.52635 8.49495 1.9389C8.33135 2.02471 8.19051 2.1482 8.08404 2.29917C7.97758 2.45014 7.90854 2.62426 7.88263 2.80717L7.39704 6.20648C7.21194 6.37055 7.03073 6.5412 6.8534 6.71843C6.67612 6.89571 6.50543 7.07697 6.34132 7.26221L6.34124 7.26227L2.94254 7.7483C2.75992 7.77412 2.58606 7.84296 2.43527 7.94916C2.28449 8.05536 2.1611 8.19587 2.07528 8.35912C1.66209 9.14907 1.31993 9.97418 1.05283 10.8247C0.997831 11.0011 0.985558 11.188 1.01703 11.37C1.0485 11.552 1.1228 11.724 1.23382 11.8716L3.29412 14.6187C3.27925 14.8656 3.27179 15.1144 3.27171 15.3651C3.27171 15.6158 3.27919 15.8647 3.29413 16.1117L3.29412 16.1118L1.23454 18.8587C1.12367 19.0061 1.04941 19.1777 1.01788 19.3594C0.986355 19.5412 0.998463 19.7278 1.05321 19.9039C1.31962 20.7546 1.66111 21.58 2.07367 22.3703C2.15948 22.5339 2.28296 22.6747 2.43393 22.7812C2.5849 22.8877 2.75903 22.9567 2.94194 22.9826L6.34124 23.4682C6.50531 23.6533 6.67596 23.8345 6.85319 24.0118C7.03046 24.1891 7.21172 24.3598 7.39697 24.5239L7.39703 24.524L7.88306 27.9227C7.90888 28.1053 7.97772 28.2792 8.08392 28.43C8.19012 28.5807 8.33063 28.7041 8.49388 28.79C9.28383 29.2031 10.1089 29.5453 10.9595 29.8124C11.1358 29.8674 11.3227 29.8797 11.5048 29.8482C11.6868 29.8167 11.8587 29.7424 12.0064 29.6314L14.7534 27.5711C15.0003 27.586 15.2491 27.5935 15.4999 27.5935C15.7506 27.5935 15.9994 27.586 16.2465 27.5711L16.2466 27.5711L18.9935 29.6307C19.1409 29.7416 19.3125 29.8158 19.4942 29.8474C19.6759 29.8789 19.8625 29.8668 20.0386 29.812C20.8894 29.5456 21.7148 29.2041 22.5051 28.7916C22.6686 28.7058 22.8095 28.5823 22.916 28.4313C23.0224 28.2803 23.0915 28.1062 23.1174 27.9233L23.603 24.524C23.7881 24.3599 23.9693 24.1893 24.1466 24.012C24.3239 23.8348 24.4946 23.6535 24.6587 23.4683L24.6588 23.4682L28.0575 22.9822C28.2401 22.9564 28.4139 22.8875 28.5647 22.7813C28.7155 22.6751 28.8389 22.5346 28.9247 22.3714C29.3379 21.5814 29.6801 20.7563 29.9472 19.9058C30.0022 19.7294 30.0144 19.5425 29.983 19.3605C29.9515 19.1784 29.8772 19.0065 29.7662 18.8588L27.7059 16.1118C27.7207 15.8649 27.7282 15.6161 27.7283 15.3654C27.7283 15.1147 27.7208 14.8658 27.7059 14.6188L27.7059 14.6187L29.7655 11.8718C29.8763 11.7244 29.9506 11.5527 29.9821 11.371C30.0136 11.1893 30.0015 11.0027 29.9468 10.8266C29.6804 9.97585 29.3389 9.15046 28.9263 8.36018C28.8405 8.19659 28.717 8.05574 28.5661 7.94928C28.4151 7.84281 28.241 7.77378 28.0581 7.74787L24.6588 7.26227C24.4947 7.07717 24.324 6.89596 24.1468 6.71863C23.9695 6.54136 23.7883 6.37066 23.603 6.20655L23.603 6.20648L23.1169 2.80777C23.0911 2.62516 23.0223 2.45129 22.9161 2.30051C22.8099 2.14972 22.6694 2.02633 22.5061 1.94051C21.7162 1.52732 20.8911 1.18516 20.0405 0.918067C19.8642 0.863065 19.6773 0.850793 19.4952 0.882262C19.3132 0.913731 19.1413 0.988039 18.9936 1.09905L16.2466 3.15935C15.9997 3.14449 15.7509 3.13702 15.5001 3.13695C15.2494 3.13695 15.0006 3.14442 14.7535 3.15937L14.7534 3.15935Z" stroke="#292627" stroke-width="1.4"/>
<path d="M18.0847 21.188C19.8588 21.188 20.9816 19.2839 20.1229 17.7315L19.5761 16.7428H11.6828L11.1359 17.7315C10.2773 19.2839 11.4001 21.188 13.1741 21.188H18.0847Z" fill="#292627"/>
<path d="M14.063 9.54199V12.4393L11.6828 16.7428M14.063 9.54199H12.7179M14.063 9.54199H17.1958M17.1958 9.54199V12.4393L19.5761 16.7428M17.1958 9.54199H18.5409M19.5761 16.7428L20.1229 17.7315C20.9816 19.2839 19.8588 21.188 18.0847 21.188H13.1741C11.4001 21.188 10.2773 19.2839 11.1359 17.7315L11.6828 16.7428M19.5761 16.7428H11.6828" stroke="#292627" stroke-width="1.4"/>
</svg>
